<?xml version="1.0" encoding="UTF-8"?>
<svg width="50px" height="50px" viewBox="0 0 50 50" version="1.1" xmlns="http://www.w3.org/2000/svg" xmlns:xlink="http://www.w3.org/1999/xlink">
    <title>编组 9</title>
    <g id="页面-1" stroke="none" stroke-width="1" fill="none" fill-rule="evenodd">
        <g id="编组-9">
            <circle id="椭圆形" fill="#9D84FF" cx="25" cy="25" r="25"></circle>
            <g id="钻石" transform="translate(14, 16)" fill="#000000" fill-rule="nonzero">
                <rect id="矩形" opacity="0" x="0" y="0" width="22" height="22"></rect>
                <path d="M8.37705859,1.1 L3.3,1.1 L0,6.98648649 L6.05,6.98648649 L8.37705859,1.1 Z M22,6.98648649 L18.7,1.1 L13.6235,1.1 L15.95,6.98648649 L22,6.98648649 Z M14.85,6.98648649 L12.5235,1.1 L9.47705859,1.1 L7.15,6.98648649 L14.85,6.98648649 Z M12.6923457,18.9242853 L22,8.05675676 L15.95,8.05675676 L12.6923457,18.9242853 Z M0,8.05675676 L9.3076543,18.9242853 L6.05,8.05675676 L0,8.05675676 Z M7.15,8.05675676 L11,20.9 L14.85,8.05675676 L7.15,8.05675676 Z" id="形状"></path>
            </g>
        </g>
    </g>
</svg>