<?xml version="1.0" encoding="UTF-8"?>
<svg width="50px" height="50px" viewBox="0 0 50 50" version="1.1" xmlns="http://www.w3.org/2000/svg" xmlns:xlink="http://www.w3.org/1999/xlink">
    <title>编组 6</title>
    <g id="页面-1" stroke="none" stroke-width="1" fill="none" fill-rule="evenodd">
        <g id="编组-4">
            <circle id="椭圆形" fill="#69C3C9" cx="25" cy="25" r="25"></circle>
            <g id="jinbitixian" transform="translate(13, 16)" fill="#000000" fill-rule="nonzero">
                <path d="M1.33731343,10.4119403 C0.971144279,10.4119403 0.656716418,10.2766169 0.394029851,10.0059701 C0.131343284,9.73532338 1.22966003e-15,9.41691542 1.22966003e-15,9.05074627 L1.22966003e-15,7.2358209 C1.22966003e-15,6.86965174 0.131343284,6.55522388 0.394029851,6.29253731 C0.656716418,6.02985075 0.971144279,5.89850746 1.33731343,5.89850746 L18.8656716,5.89850746 C18.6268657,5.96218905 18.3960199,6.04577114 18.1731343,6.14925373 C17.9502488,6.25273632 17.7512438,6.4159204 17.5761194,6.63880597 C17.0666667,7.2119403 16.5572139,7.82885572 16.0477612,8.48955224 C15.5383085,9.15024876 15.0527363,9.79104478 14.5910448,10.4119403 L1.33731343,10.4119403 Z M4.32238806,4.37014925 C3.95621891,4.37014925 3.64179104,4.23482587 3.37910448,3.9641791 C3.11641791,3.69353234 2.98507463,3.37512438 2.98507463,3.00895522 L2.98507463,1.33731343 C2.98507463,0.971144279 3.11641791,0.656716418 3.37910448,0.394029851 C3.64179104,0.131343284 3.95621891,4.26690192e-16 4.32238806,4.26690192e-16 L22.4955224,4.26690192e-16 C22.8616915,4.26690192e-16 23.1800995,0.131343284 23.4507463,0.394029851 C23.721393,0.656716418 23.8567164,0.971144279 23.8567164,1.33731343 L23.8567164,3.00895522 C23.8567164,3.37512438 23.721393,3.69353234 23.4507463,3.9641791 C23.1800995,4.23482587 22.8616915,4.37014925 22.4955224,4.37014925 L4.32238806,4.37014925 Z M16.3820896,14.8537313 L16.3820896,15.0447761 C16.3820896,15.1402985 16.3860697,15.2955224 16.3940299,15.5104478 C16.40199,15.7253731 16.4059701,16.039801 16.4059701,16.4537313 L1.33731343,16.4537313 C0.971144279,16.4537313 0.656716418,16.3223881 0.394029851,16.0597015 C0.131343284,15.7970149 -5.46696809e-16,15.4746269 -5.46696809e-16,15.0925373 L-5.46696809e-16,13.3014925 C-5.46696809e-16,12.9353234 0.131343284,12.6208955 0.394029851,12.358209 C0.656716418,12.0955224 0.971144279,11.9641791 1.33731343,11.9641791 L13.3970149,11.9641791 C13.3492537,11.9960199 13.3054726,12.039801 13.2656716,12.0955224 C13.2258706,12.1512438 13.1900498,12.1950249 13.158209,12.2268657 C12.999005,12.4497512 12.9034826,12.7124378 12.8716418,13.0149254 C12.839801,13.3174129 12.8716418,13.6079602 12.9671642,13.8865672 C13.0626866,14.1651741 13.2179104,14.4 13.4328358,14.5910448 C13.6477612,14.7820896 13.9144279,14.8776119 14.2328358,14.8776119 L15.3552239,14.8776119 L16.3820896,14.8537313 Z M23.4985075,12.1791045 L23.8567164,12.7761194 C23.9522388,12.9353234 24,13.0626866 24,13.158209 C24,13.2537313 23.9402985,13.321393 23.8208955,13.361194 C23.7014925,13.400995 23.5064677,13.4208955 23.2358209,13.4208955 L21.9462687,13.4208955 C21.5960199,13.4208955 21.3333333,13.5084577 21.158209,13.6835821 C20.9830846,13.8587065 20.8955224,14.0895522 20.8955224,14.3761194 L20.8955224,16.6925373 C20.8955224,16.9631841 20.7761194,17.2338308 20.5373134,17.5044776 C20.2985075,17.7751244 20.0119403,17.9104478 19.6776119,17.9104478 L18.7462687,17.9104478 C18.5074627,17.9104478 18.2965174,17.8189055 18.1134328,17.6358209 C17.9303483,17.4527363 17.838806,17.1303483 17.838806,16.6686567 C17.838806,16.4616915 17.8427861,16.3303483 17.8507463,16.2746269 C17.8587065,16.2189055 17.8626866,16.1472637 17.8626866,16.0597015 C17.8626866,15.9721393 17.8666667,15.8248756 17.8746269,15.6179104 C17.8825871,15.4109453 17.8865672,15.0527363 17.8865672,14.5432836 C17.8865672,14.1452736 17.8189055,13.8587065 17.6835821,13.6835821 C17.5482587,13.5084577 17.3054726,13.4208955 16.9552239,13.4208955 L15.6656716,13.4208955 C15.2995025,13.4208955 15.0686567,13.3452736 14.9731343,13.1940299 C14.8776119,13.0427861 14.9572139,12.8079602 15.2119403,12.4895522 C15.4507463,12.1711443 15.7174129,11.800995 16.0119403,11.3791045 C16.3064677,10.9572139 16.6089552,10.519403 16.919403,10.0656716 C17.2298507,9.6119403 17.5323383,9.17014925 17.8268657,8.74029851 C18.121393,8.31044776 18.4039801,7.92835821 18.6746269,7.59402985 C18.7860697,7.46666667 18.9293532,7.36716418 19.1044776,7.29552239 C19.279602,7.2238806 19.4626866,7.1840796 19.6537313,7.1761194 C19.8447761,7.1681592 20.0199005,7.1880597 20.1791045,7.2358209 C20.3383085,7.28358209 20.4577114,7.36318408 20.5373134,7.47462687 C20.7283582,7.80895522 20.9472637,8.17910448 21.1940299,8.58507463 C21.440796,8.99104478 21.6995025,9.40099502 21.9701493,9.81492537 C22.240796,10.2288557 22.5074627,10.638806 22.7701493,11.0447761 C23.0328358,11.4507463 23.2756219,11.8288557 23.4985075,12.1791045 L23.4985075,12.1791045 Z" id="形状"></path>
            </g>
        </g>
    </g>
</svg>