<?xml version="1.0" encoding="UTF-8"?>
<svg width="50px" height="50px" viewBox="0 0 50 50" version="1.1" xmlns="http://www.w3.org/2000/svg" xmlns:xlink="http://www.w3.org/1999/xlink">
    <title>编组 3备份 3</title>
    <g id="页面-1" stroke="none" stroke-width="1" fill="none" fill-rule="evenodd">
        <g id="编组-3备份">
            <circle id="椭圆形" fill="#FFCC01" cx="25" cy="25" r="25"></circle>
            <g id="编组" transform="translate(13, 13)" fill="#000000">
                <polygon id="Fill-1" points="8.0582849 8.03622299 0.849780298 11.984415 8.0582849 15.9309038 12.0010206 23.1493843 15.9420553 15.9309038 23.148859 11.984415 15.9420553 8.03622299 12.0010206 0.819445726"></polygon>
                <path d="M2.62282069,11.9833931 L8.46548547,15.1838473 C8.60836286,15.2621979 8.72572644,15.3797239 8.80396882,15.522799 L12,21.3735496 L15.1960312,15.522799 C15.2742736,15.3797239 15.3916371,15.2621979 15.5345145,15.1838473 L21.3771793,11.9833931 L15.5345145,8.78293886 C15.3916371,8.7045882 15.2742736,8.58706221 15.1960312,8.44398708 L12,2.59323658 L8.80396882,8.44398708 C8.72572644,8.58706221 8.60836286,8.7045882 8.46548547,8.78293886 L2.62282069,11.9833931 Z M12,24 L12,24 C11.6887314,24 11.4029766,23.8313757 11.2532955,23.5571484 L7.4313253,16.5583904 L0.442239546,12.7311309 C0.170092133,12.5812427 0,12.2950924 0,11.9833931 C0,11.6716937 0.170092133,11.3855435 0.442239546,11.2373585 L7.4313253,7.40839573 L11.2532955,0.411340974 C11.5509568,-0.137113658 12.4473423,-0.137113658 12.7450035,0.411340974 L16.5686747,7.40839573 L23.5577605,11.2373585 C23.8299079,11.3855435 24,11.6716937 24,11.9833931 C24,12.2950924 23.8299079,12.5812427 23.5577605,12.7311309 L16.5686747,16.5583904 L12.7450035,23.5571484 C12.5970234,23.8313757 12.3095677,24 12,24 L12,24 Z" id="Fill-2"></path>
            </g>
        </g>
    </g>
</svg>