<?xml version="1.0" encoding="UTF-8"?>
<svg width="50px" height="50px" viewBox="0 0 50 50" version="1.1" xmlns="http://www.w3.org/2000/svg" xmlns:xlink="http://www.w3.org/1999/xlink">
    <title>编组 8</title>
    <g id="页面-1" stroke="none" stroke-width="1" fill="none" fill-rule="evenodd">
        <g id="编组-8">
            <g id="编组-5" fill="#1BA27A">
                <circle id="椭圆形" cx="25" cy="25" r="25"></circle>
            </g>
            <g id="USDT" transform="translate(14, 17)" fill="#000000" fill-rule="nonzero">
                <path d="M19.409392,4.12375926 L19.409392,0 L2.62919093,0 L2.62919093,4.12375926 L8.81552081,4.12375926 L8.81552081,6.8179271 C3.78673825,7.04548032 0,8.04291753 0,9.23963647 C0,10.4363848 3.78670904,11.4337632 8.81552081,11.6613458 L8.81552081,20.3076923 L13.2230914,20.3076923 L13.2230914,11.659318 C18.2324802,11.4283264 22,10.4327113 22,9.23960708 C22,8.04635596 18.2324802,7.05041755 13.2230914,6.81971978 L13.2230914,4.12372988 L19.409392,4.12372988 L19.409392,4.12375926 Z M20.1054334,8.99600787 C20.1054334,9.78308399 17.1773632,10.443291 13.2230914,10.6265855 L12.9675559,10.6374886 L12.9393124,10.6374886 L12.6996949,10.6463638 L12.6737588,10.6463638 C12.4955353,10.652506 12.3151504,10.6577665 12.1324874,10.6619102 L12.1211549,10.6619102 L11.8761341,10.6670238 L11.8068834,10.6670238 L11.6135305,10.6696393 L10.389069,10.6696393 L10.1977022,10.6670238 L10.1312262,10.6670238 L9.9026199,10.6622041 L9.87750155,10.6622041 C9.60654458,10.6561207 9.33967665,10.6477157 9.07675171,10.6374886 L9.07330524,10.6374886 L8.8115486,10.6260859 C4.83756177,10.4455833 1.89062363,9.78308399 1.89062363,8.99224618 C1.89062363,8.20123204 4.83805829,7.54070172 8.8115486,7.35820069 L8.8115486,9.8593465 C9.50133956,9.89552343 10.2351168,9.9153605 10.9961446,9.9153605 C11.7692935,9.9153605 12.5178789,9.89520016 13.2192944,9.8573481 L13.2192944,7.36563592 C17.1770127,7.54846022 20.1054334,8.20899053 20.1054334,8.99600787 L20.1054334,8.99600787 Z" id="形状"></path>
            </g>
        </g>
    </g>
</svg>