<?xml version="1.0" encoding="UTF-8"?>
<svg width="50px" height="50px" viewBox="0 0 50 50" version="1.1" xmlns="http://www.w3.org/2000/svg" xmlns:xlink="http://www.w3.org/1999/xlink">
    <title>品牌特卖-填充 2</title>
    <g id="页面-1" stroke="none" stroke-width="1" fill="none" fill-rule="evenodd">
        <g id="品牌特卖-填充">
            <circle id="椭圆形" fill="#69C3C9" cx="25" cy="25" r="25"></circle>
            <rect id="矩形" fill="#000000" fill-rule="nonzero" opacity="0" x="8" y="8" width="34" height="34"></rect>
            <path d="M37.3967828,24.8598161 L26.1367292,13.5968012 C25.7613941,13.2213674 25.1715818,12.9532004 24.6353887,13.0068338 L15.30563,13.3286342 C14.233244,13.3822676 13.3753351,14.2404021 13.3217158,15.3130702 L13,24.6452824 C13,25.1816165 13.2144772,25.7715839 13.5898123,26.1470177 L24.849866,37.4100326 C25.2252011,37.7854664 25.7613941,38 26.2975871,38 C26.8337802,38 27.3163539,37.7854664 27.7453083,37.4100326 L37.3967828,27.7560199 C38.2010724,26.9515188 38.2010724,25.6643171 37.3967828,24.8598161 Z M21.2037534,21.2127446 C20.4530831,21.9636122 19.2734584,21.9636122 18.5227882,21.2127446 C17.772118,20.4618769 17.772118,19.2819421 18.5227882,18.5310744 C19.2734584,17.7802067 20.4530831,17.7802067 21.2037534,18.5310744 C21.9008043,19.2819421 21.9008043,20.4618769 21.2037534,21.2127446 Z" id="形状" fill="#000000" fill-rule="nonzero"></path>
        </g>
    </g>
</svg>